# Procedural S4WN building model (UV-unwrapped)
mtllib runestone.mtl
o building
v -0.2500 0.0000 0.2500
v 0.2500 0.0000 0.2500
v 0.2500 3.0000 0.2500
v -0.2500 3.0000 0.2500
v -0.2500 0.0000 -0.2500
v 0.2500 0.0000 -0.2500
v 0.2500 3.0000 -0.2500
v -0.2500 3.0000 -0.2500
vt 0.0000 0.0000
vt 1.0000 0.0000
vt 1.0000 1.0000
vt 0.0000 1.0000
vt 0.0000 0.0000
vt 1.0000 0.0000
vt 1.0000 1.0000
vt 0.0000 1.0000
vt 0.0000 0.0000
vt 1.0000 0.0000
vt 1.0000 1.0000
vt 0.0000 1.0000
vt 0.0000 0.0000
vt 1.0000 0.0000
vt 1.0000 1.0000
vt 0.0000 1.0000
vt 0.0000 0.0000
vt 1.0000 0.0000
vt 1.0000 1.0000
vt 0.0000 1.0000
vt 0.0000 0.0000
vt 1.0000 0.0000
vt 1.0000 1.0000
vt 0.0000 1.0000
vn 0.0000 0.0000 1.0000
vn 1.0000 0.0000 0.0000
vn 0.0000 0.0000 -1.0000
vn -1.0000 0.0000 0.0000
vn 0.0000 1.0000 0.0000
vn 0.0000 -1.0000 0.0000
usemtl material
f 1/1/1 2/2/1 3/3/1 4/4/1
f 2/5/2 6/6/2 7/7/2 3/8/2
f 6/9/3 5/10/3 8/11/3 7/12/3
f 5/13/4 1/14/4 4/15/4 8/16/4
f 4/17/5 3/18/5 7/19/5 8/20/5
f 1/21/6 5/22/6 6/23/6 2/24/6
