# Procedural S4WN building model (UV-unwrapped)
mtllib sanctuary_of_artemis.mtl
o building
v -1.5750 0.0000 2.1000
v 1.5750 0.0000 2.1000
v 1.5750 1.0500 2.1000
v -1.5750 1.0500 2.1000
v -1.5750 0.0000 -2.1000
v 1.5750 0.0000 -2.1000
v 1.5750 1.0500 -2.1000
v -1.5750 1.0500 -2.1000
v -1.5000 0.3500 2.0000
v 1.5000 0.3500 2.0000
v 1.5000 2.1000 2.0000
v -1.5000 2.1000 2.0000
v -1.5000 0.3500 -2.0000
v 1.5000 0.3500 -2.0000
v 1.5000 2.1000 -2.0000
v -1.5000 2.1000 -2.0000
v -1.3200 1.7500 -1.3400
v -0.9600 1.7500 -1.3400
v -0.9600 8.0500 -1.3400
v -1.3200 8.0500 -1.3400
v -1.3200 1.7500 -1.7000
v -0.9600 1.7500 -1.7000
v -0.9600 8.0500 -1.7000
v -1.3200 8.0500 -1.7000
v 0.9600 1.7500 -1.3400
v 1.3200 1.7500 -1.3400
v 1.3200 8.0500 -1.3400
v 0.9600 8.0500 -1.3400
v 0.9600 1.7500 -1.7000
v 1.3200 1.7500 -1.7000
v 1.3200 8.0500 -1.7000
v 0.9600 8.0500 -1.7000
v -1.3200 1.7500 1.7000
v -0.9600 1.7500 1.7000
v -0.9600 8.0500 1.7000
v -1.3200 8.0500 1.7000
v -1.3200 1.7500 1.3400
v -0.9600 1.7500 1.3400
v -0.9600 8.0500 1.3400
v -1.3200 8.0500 1.3400
v 0.9600 1.7500 1.7000
v 1.3200 1.7500 1.7000
v 1.3200 8.0500 1.7000
v 0.9600 8.0500 1.7000
v 0.9600 1.7500 1.3400
v 1.3200 1.7500 1.3400
v 1.3200 8.0500 1.3400
v 0.9600 8.0500 1.3400
v -1.3500 7.5250 0.3000
v 1.3500 7.5250 0.3000
v 1.3500 9.2750 0.3000
v -1.3500 9.2750 0.3000
v -1.3500 7.5250 -0.3000
v 1.3500 7.5250 -0.3000
v 1.3500 9.2750 -0.3000
v -1.3500 9.2750 -0.3000
vt 0.0000 0.0000
vt 1.0000 0.0000
vt 1.0000 1.0000
vt 0.0000 1.0000
vt 0.0000 0.0000
vt 1.0000 0.0000
vt 1.0000 1.0000
vt 0.0000 1.0000
vt 0.0000 0.0000
vt 1.0000 0.0000
vt 1.0000 1.0000
vt 0.0000 1.0000
vt 0.0000 0.0000
vt 1.0000 0.0000
vt 1.0000 1.0000
vt 0.0000 1.0000
vt 0.0000 0.0000
vt 1.0000 0.0000
vt 1.0000 1.0000
vt 0.0000 1.0000
vt 0.0000 0.0000
vt 1.0000 0.0000
vt 1.0000 1.0000
vt 0.0000 1.0000
vt 0.0000 0.0000
vt 1.0000 0.0000
vt 1.0000 1.0000
vt 0.0000 1.0000
vt 0.0000 0.0000
vt 1.0000 0.0000
vt 1.0000 1.0000
vt 0.0000 1.0000
vt 0.0000 0.0000
vt 1.0000 0.0000
vt 1.0000 1.0000
vt 0.0000 1.0000
vt 0.0000 0.0000
vt 1.0000 0.0000
vt 1.0000 1.0000
vt 0.0000 1.0000
vt 0.0000 0.0000
vt 1.0000 0.0000
vt 1.0000 1.0000
vt 0.0000 1.0000
vt 0.0000 0.0000
vt 1.0000 0.0000
vt 1.0000 1.0000
vt 0.0000 1.0000
vt 0.0000 0.0000
vt 1.0000 0.0000
vt 1.0000 1.0000
vt 0.0000 1.0000
vt 0.0000 0.0000
vt 1.0000 0.0000
vt 1.0000 1.0000
vt 0.0000 1.0000
vt 0.0000 0.0000
vt 1.0000 0.0000
vt 1.0000 1.0000
vt 0.0000 1.0000
vt 0.0000 0.0000
vt 1.0000 0.0000
vt 1.0000 1.0000
vt 0.0000 1.0000
vt 0.0000 0.0000
vt 1.0000 0.0000
vt 1.0000 1.0000
vt 0.0000 1.0000
vt 0.0000 0.0000
vt 1.0000 0.0000
vt 1.0000 1.0000
vt 0.0000 1.0000
vt 0.0000 0.0000
vt 1.0000 0.0000
vt 1.0000 1.0000
vt 0.0000 1.0000
vt 0.0000 0.0000
vt 1.0000 0.0000
vt 1.0000 1.0000
vt 0.0000 1.0000
vt 0.0000 0.0000
vt 1.0000 0.0000
vt 1.0000 1.0000
vt 0.0000 1.0000
vt 0.0000 0.0000
vt 1.0000 0.0000
vt 1.0000 1.0000
vt 0.0000 1.0000
vt 0.0000 0.0000
vt 1.0000 0.0000
vt 1.0000 1.0000
vt 0.0000 1.0000
vt 0.0000 0.0000
vt 1.0000 0.0000
vt 1.0000 1.0000
vt 0.0000 1.0000
vt 0.0000 0.0000
vt 1.0000 0.0000
vt 1.0000 1.0000
vt 0.0000 1.0000
vt 0.0000 0.0000
vt 1.0000 0.0000
vt 1.0000 1.0000
vt 0.0000 1.0000
vt 0.0000 0.0000
vt 1.0000 0.0000
vt 1.0000 1.0000
vt 0.0000 1.0000
vt 0.0000 0.0000
vt 1.0000 0.0000
vt 1.0000 1.0000
vt 0.0000 1.0000
vt 0.0000 0.0000
vt 1.0000 0.0000
vt 1.0000 1.0000
vt 0.0000 1.0000
vt 0.0000 0.0000
vt 1.0000 0.0000
vt 1.0000 1.0000
vt 0.0000 1.0000
vt 0.0000 0.0000
vt 1.0000 0.0000
vt 1.0000 1.0000
vt 0.0000 1.0000
vt 0.0000 0.0000
vt 1.0000 0.0000
vt 1.0000 1.0000
vt 0.0000 1.0000
vt 0.0000 0.0000
vt 1.0000 0.0000
vt 1.0000 1.0000
vt 0.0000 1.0000
vt 0.0000 0.0000
vt 1.0000 0.0000
vt 1.0000 1.0000
vt 0.0000 1.0000
vt 0.0000 0.0000
vt 1.0000 0.0000
vt 1.0000 1.0000
vt 0.0000 1.0000
vt 0.0000 0.0000
vt 1.0000 0.0000
vt 1.0000 1.0000
vt 0.0000 1.0000
vt 0.0000 0.0000
vt 1.0000 0.0000
vt 1.0000 1.0000
vt 0.0000 1.0000
vt 0.0000 0.0000
vt 1.0000 0.0000
vt 1.0000 1.0000
vt 0.0000 1.0000
vt 0.0000 0.0000
vt 1.0000 0.0000
vt 1.0000 1.0000
vt 0.0000 1.0000
vt 0.0000 0.0000
vt 1.0000 0.0000
vt 1.0000 1.0000
vt 0.0000 1.0000
vt 0.0000 0.0000
vt 1.0000 0.0000
vt 1.0000 1.0000
vt 0.0000 1.0000
vt 0.0000 0.0000
vt 1.0000 0.0000
vt 1.0000 1.0000
vt 0.0000 1.0000
vn 0.0000 0.0000 1.0000
vn 1.0000 0.0000 0.0000
vn 0.0000 0.0000 -1.0000
vn -1.0000 0.0000 0.0000
vn 0.0000 1.0000 0.0000
vn 0.0000 -1.0000 0.0000
vn 0.0000 0.0000 1.0000
vn 1.0000 0.0000 0.0000
vn 0.0000 0.0000 -1.0000
vn -1.0000 0.0000 0.0000
vn 0.0000 1.0000 0.0000
vn 0.0000 -1.0000 0.0000
vn 0.0000 0.0000 1.0000
vn 1.0000 0.0000 0.0000
vn 0.0000 0.0000 -1.0000
vn -1.0000 0.0000 0.0000
vn 0.0000 1.0000 0.0000
vn 0.0000 -1.0000 0.0000
vn 0.0000 0.0000 1.0000
vn 1.0000 0.0000 0.0000
vn 0.0000 0.0000 -1.0000
vn -1.0000 0.0000 0.0000
vn 0.0000 1.0000 0.0000
vn 0.0000 -1.0000 0.0000
vn 0.0000 0.0000 1.0000
vn 1.0000 0.0000 0.0000
vn 0.0000 0.0000 -1.0000
vn -1.0000 0.0000 0.0000
vn 0.0000 1.0000 0.0000
vn 0.0000 -1.0000 0.0000
vn 0.0000 0.0000 1.0000
vn 1.0000 0.0000 0.0000
vn 0.0000 0.0000 -1.0000
vn -1.0000 0.0000 0.0000
vn 0.0000 1.0000 0.0000
vn 0.0000 -1.0000 0.0000
vn 0.0000 0.0000 1.0000
vn 1.0000 0.0000 0.0000
vn 0.0000 0.0000 -1.0000
vn -1.0000 0.0000 0.0000
vn 0.0000 1.0000 0.0000
vn 0.0000 -1.0000 0.0000
usemtl material
f 1/1/1 2/2/1 3/3/1 4/4/1
f 2/5/2 6/6/2 7/7/2 3/8/2
f 6/9/3 5/10/3 8/11/3 7/12/3
f 5/13/4 1/14/4 4/15/4 8/16/4
f 4/17/5 3/18/5 7/19/5 8/20/5
f 1/21/6 5/22/6 6/23/6 2/24/6
f 9/25/7 10/26/7 11/27/7 12/28/7
f 10/29/8 14/30/8 15/31/8 11/32/8
f 14/33/9 13/34/9 16/35/9 15/36/9
f 13/37/10 9/38/10 12/39/10 16/40/10
f 12/41/11 11/42/11 15/43/11 16/44/11
f 9/45/12 13/46/12 14/47/12 10/48/12
f 17/49/13 18/50/13 19/51/13 20/52/13
f 18/53/14 22/54/14 23/55/14 19/56/14
f 22/57/15 21/58/15 24/59/15 23/60/15
f 21/61/16 17/62/16 20/63/16 24/64/16
f 20/65/17 19/66/17 23/67/17 24/68/17
f 17/69/18 21/70/18 22/71/18 18/72/18
f 25/73/19 26/74/19 27/75/19 28/76/19
f 26/77/20 30/78/20 31/79/20 27/80/20
f 30/81/21 29/82/21 32/83/21 31/84/21
f 29/85/22 25/86/22 28/87/22 32/88/22
f 28/89/23 27/90/23 31/91/23 32/92/23
f 25/93/24 29/94/24 30/95/24 26/96/24
f 33/97/25 34/98/25 35/99/25 36/100/25
f 34/101/26 38/102/26 39/103/26 35/104/26
f 38/105/27 37/106/27 40/107/27 39/108/27
f 37/109/28 33/110/28 36/111/28 40/112/28
f 36/113/29 35/114/29 39/115/29 40/116/29
f 33/117/30 37/118/30 38/119/30 34/120/30
f 41/121/31 42/122/31 43/123/31 44/124/31
f 42/125/32 46/126/32 47/127/32 43/128/32
f 46/129/33 45/130/33 48/131/33 47/132/33
f 45/133/34 41/134/34 44/135/34 48/136/34
f 44/137/35 43/138/35 47/139/35 48/140/35
f 41/141/36 45/142/36 46/143/36 42/144/36
f 49/145/37 50/146/37 51/147/37 52/148/37
f 50/149/38 54/150/38 55/151/38 51/152/38
f 54/153/39 53/154/39 56/155/39 55/156/39
f 53/157/40 49/158/40 52/159/40 56/160/40
f 52/161/41 51/162/41 55/163/41 56/164/41
f 49/165/42 53/166/42 54/167/42 50/168/42
